<svg width="18" height="18" viewBox="0 0 18 18" fill="none" xmlns="http://www.w3.org/2000/svg">
<path d="M11.25 6H12.75M11.25 9H12.75M5.25 12H12.75M4.5 3H13.5C14.7426 3 15.75 4.00736 15.75 5.25V12.75C15.75 13.9926 14.7426 15 13.5 15H4.5C3.25736 15 2.25 13.9926 2.25 12.75V5.25C2.25 4.00736 3.25736 3 4.5 3ZM8.25 7.5C8.25 8.32843 7.57843 9 6.75 9C5.92157 9 5.25 8.32843 5.25 7.5C5.25 6.67157 5.92157 6 6.75 6C7.57843 6 8.25 6.67157 8.25 7.5Z" stroke="#6B6B6B" stroke-linecap="round" stroke-linejoin="round"/>
</svg>
