<svg width="18" height="18" viewBox="0 0 18 18" fill="none" xmlns="http://www.w3.org/2000/svg">
<g opacity="0.6">
<path d="M6 8.25V5.25C6 4.45435 6.31607 3.69129 6.87868 3.12868C7.44129 2.56607 8.20435 2.25 9 2.25C9.79565 2.25 10.5587 2.56607 11.1213 3.12868C11.6839 3.69129 12 4.45435 12 5.25V8.25M5.25 8.25H12.75C13.5784 8.25 14.25 8.92157 14.25 9.75V14.25C14.25 15.0784 13.5784 15.75 12.75 15.75H5.25C4.42157 15.75 3.75 15.0784 3.75 14.25V9.75C3.75 8.92157 4.42157 8.25 5.25 8.25ZM9.75 12C9.75 12.4142 9.41421 12.75 9 12.75C8.58579 12.75 8.25 12.4142 8.25 12C8.25 11.5858 8.58579 11.25 9 11.25C9.41421 11.25 9.75 11.5858 9.75 12Z" stroke="#121212" stroke-linecap="round" stroke-linejoin="round"/>
</g>
</svg>
